<svg width="18" height="18" viewBox="0 0 24 24" fill="none" xmlns="http://www.w3.org/2000/svg">
<path d="M19.3151 4.68646C15.2748 0.646181 8.72527 0.646181 4.68499 4.68646C0.644716 8.72673 0.644716 15.2763 4.68499 19.3165C8.72527 23.3568 15.2748 23.3568 19.3151 19.3165C23.3553 15.2763 23.3545 8.72673 19.3151 4.68646ZM16.3887 15.22C16.5439 15.3752 16.6311 15.5856 16.6311 15.8051C16.6311 16.0245 16.5439 16.235 16.3887 16.3902C16.2335 16.5454 16.0231 16.6325 15.8036 16.6325C15.5842 16.6325 15.3737 16.5454 15.2185 16.3902L12 13.1717L8.78154 16.3902C8.70486 16.4673 8.6137 16.5285 8.51328 16.5703C8.41287 16.612 8.30519 16.6335 8.19644 16.6335C8.08769 16.6335 7.98001 16.612 7.8796 16.5703C7.77918 16.5285 7.68801 16.4673 7.61134 16.3902C7.53442 16.3134 7.47339 16.2222 7.43176 16.1218C7.39012 16.0214 7.36869 15.9138 7.36869 15.8051C7.36869 15.6964 7.39012 15.5888 7.43176 15.4884C7.47339 15.388 7.53442 15.2968 7.61134 15.22L10.8298 12.0015L7.61134 8.78301C7.45616 8.62783 7.36898 8.41736 7.36898 8.19791C7.36898 7.97845 7.45616 7.76798 7.61134 7.6128C7.76652 7.45762 7.97698 7.37044 8.19644 7.37044C8.4159 7.37044 8.62636 7.45762 8.78154 7.6128L12 10.8313L15.2185 7.6128C15.2953 7.53596 15.3866 7.47501 15.487 7.43343C15.5873 7.39185 15.6949 7.37044 15.8036 7.37044C15.9123 7.37044 16.0199 7.39185 16.1203 7.43343C16.2207 7.47501 16.3119 7.53596 16.3887 7.6128C16.4656 7.68964 16.5265 7.78086 16.5681 7.88125C16.6097 7.98164 16.6311 8.08924 16.6311 8.19791C16.6311 8.30657 16.6097 8.41417 16.5681 8.51456C16.5265 8.61495 16.4656 8.70617 16.3887 8.78301L13.1702 12.0015L16.3887 15.22Z" fill="#757F93"/>
</svg>
